<?xml version="1.0" standalone="no"?>
<!DOCTYPE svg PUBLIC "-//W3C//DTD SVG 20010904//EN"
 "http://www.w3.org/TR/2001/REC-SVG-20010904/DTD/svg10.dtd">
<svg version="1.0" xmlns="http://www.w3.org/2000/svg"
 width="500.000000pt" height="500.000000pt" viewBox="0 0 500.000000 500.000000"
 preserveAspectRatio="xMidYMid meet">
<metadata>
Created by potrace 1.11, written by Peter Selinger 2001-2013
</metadata>
<g transform="translate(0.000000,500.000000) scale(0.100000,-0.100000)"
fill="#000000" stroke="none">
<path d="M563 3667 c1 -18 -2 -38 -6 -44 -4 -6 -3 -14 3 -18 6 -4 8 -10 5 -15
-9 -15 -13 -90 -4 -95 4 -3 4 -17 -1 -31 -12 -31 -12 -37 -1 -30 5 3 11 -1 15
-9 3 -8 12 -15 20 -15 8 0 22 -10 30 -22 9 -12 16 -19 16 -16 0 4 34 -9 76
-28 42 -20 84 -36 95 -37 10 -1 19 -5 19 -10 0 -5 7 -4 16 3 12 11 15 11 12
-1 -2 -9 4 -13 15 -11 9 2 17 -1 17 -5 0 -5 13 -9 30 -9 16 -1 37 -5 47 -9 10
-4 32 -9 48 -12 56 -7 64 -9 72 -18 4 -4 3 -5 -3 -2 -7 4 -14 -2 -17 -14 -3
-12 -10 -18 -17 -14 -6 3 -9 1 -8 -6 2 -7 -2 -13 -9 -14 -14 0 -53 -40 -53
-55 0 -5 -3 -9 -7 -8 -5 2 -9 0 -11 -4 -1 -4 -18 -24 -37 -44 -19 -20 -35 -43
-35 -50 0 -8 -4 -14 -8 -14 -11 0 -43 -56 -35 -64 3 -3 1 -6 -5 -6 -13 0 -46
-66 -45 -92 0 -10 -4 -15 -8 -12 -5 3 -9 -8 -9 -25 0 -16 -5 -33 -12 -37 -7
-5 -8 -2 -3 7 5 8 4 11 0 6 -5 -4 -10 -22 -11 -40 -2 -47 -3 -49 -16 -41 -10
6 -9 3 0 -8 9 -12 10 -22 4 -35 -5 -10 -8 -30 -6 -45 1 -17 -2 -28 -9 -28 -7
0 -6 -4 3 -10 8 -5 10 -10 5 -10 -14 0 -10 -92 6 -121 11 -22 11 -23 -5 -10
-15 12 -16 12 -10 -5 4 -10 9 -23 12 -28 3 -5 6 -27 8 -50 5 -60 7 -66 15 -66
4 0 6 -9 4 -20 -2 -11 0 -20 4 -20 5 0 12 -17 16 -37 4 -21 14 -46 22 -55 8
-9 12 -22 8 -27 -3 -6 -1 -11 4 -11 6 0 11 -7 11 -15 0 -8 5 -15 10 -15 6 0 9
-6 8 -12 -2 -7 2 -12 7 -11 6 1 12 -8 12 -20 1 -11 9 -25 18 -29 8 -5 15 -16
15 -24 0 -8 7 -17 15 -20 8 -4 12 -10 9 -15 -3 -5 2 -9 11 -9 9 0 14 -4 11 -8
-3 -5 4 -14 14 -22 10 -8 16 -18 13 -24 -4 -5 1 -7 10 -3 10 3 17 2 17 -3 0
-9 63 -75 68 -71 2 2 17 -9 35 -23 17 -14 37 -26 44 -26 7 0 13 -4 13 -10 0
-5 7 -10 15 -10 8 0 15 -5 15 -11 0 -5 4 -8 9 -5 5 3 14 -1 21 -9 7 -8 19 -15
27 -15 8 0 28 -8 46 -17 18 -9 42 -18 54 -19 13 -1 33 -6 45 -10 30 -10 34
-11 59 -13 13 -1 18 -5 13 -13 -6 -10 -5 -10 8 -1 8 7 17 10 21 7 3 -3 30 -7
59 -8 29 -1 58 -5 65 -9 6 -4 14 -3 17 2 3 4 28 9 56 10 76 3 90 5 90 12 0 4
11 6 24 3 14 -2 28 0 31 6 3 5 16 10 29 10 12 0 26 3 30 7 3 4 12 8 19 9 26 4
177 81 170 87 -3 4 2 7 13 7 11 0 26 9 34 20 8 11 19 20 24 20 5 0 17 10 27
22 11 11 19 18 19 15 0 -3 13 8 30 25 17 16 30 34 30 39 0 5 7 9 16 9 8 0 12
5 9 10 -3 5 -1 10 4 10 6 0 11 7 11 16 0 8 4 13 9 10 9 -6 26 22 23 37 -1 4 5
7 13 7 8 0 15 3 14 8 -3 17 14 51 22 46 5 -3 9 4 9 15 0 12 5 21 10 21 6 0 10
9 10 21 0 11 4 18 9 15 5 -3 9 0 8 7 -1 34 4 48 15 41 7 -5 9 -2 5 8 -3 9 1
25 9 36 8 11 11 27 8 36 -3 9 -2 16 2 16 5 0 10 15 11 34 2 19 7 44 12 57 9
23 10 23 12 -6 1 -16 1 -36 0 -44 -2 -8 2 -10 11 -5 9 5 8 2 -2 -11 -10 -13
-11 -16 -2 -11 9 5 12 3 11 -5 -1 -8 3 -33 10 -57 6 -23 9 -47 6 -52 -4 -6 -1
-9 7 -8 8 2 13 -6 12 -19 -1 -13 3 -20 7 -17 5 3 9 -4 9 -15 0 -12 5 -21 10
-21 6 0 10 -9 10 -20 0 -11 5 -20 10 -20 6 0 10 -9 10 -21 0 -11 5 -17 10 -14
6 3 10 -1 10 -9 0 -9 9 -25 20 -36 12 -12 18 -26 14 -32 -4 -6 -3 -9 2 -6 5 3
17 -3 27 -14 9 -10 14 -18 10 -18 -4 0 3 -7 15 -16 12 -8 19 -21 16 -27 -4 -7
-4 -9 0 -5 5 4 20 -6 34 -20 15 -15 32 -30 37 -32 6 -3 9 -8 7 -12 -1 -5 5 -8
12 -8 8 0 27 -11 42 -25 15 -14 33 -25 41 -25 8 0 11 -4 8 -10 -3 -5 1 -10 10
-10 9 0 23 -7 32 -15 8 -8 19 -13 24 -10 5 4 9 1 9 -5 0 -6 5 -8 10 -5 6 3 10
1 10 -6 0 -7 3 -10 6 -6 4 3 21 -1 38 -10 17 -10 34 -16 39 -15 4 1 23 -4 42
-13 20 -8 36 -14 38 -14 13 4 105 -16 116 -25 11 -8 13 -8 7 2 -4 6 -2 12 3
12 6 0 11 -7 11 -15 0 -12 4 -13 18 -6 10 5 24 6 33 0 9 -4 32 -10 52 -13 20
-2 41 -7 47 -11 5 -3 10 -1 10 6 0 8 4 9 13 0 8 -6 31 -12 53 -14 21 -1 45 -7
53 -11 8 -5 16 -4 21 4 6 9 9 9 12 -1 4 -12 8 -12 22 0 14 12 17 12 14 1 -2
-10 10 -13 45 -13 26 0 47 -3 47 -6 0 -3 21 -7 47 -9 26 -1 52 -7 57 -12 6 -6
17 -5 29 1 14 8 18 8 13 0 -5 -7 6 -11 33 -11 23 0 41 -4 41 -9 0 -4 18 -8 39
-7 22 1 39 0 38 -4 -1 -3 3 -7 8 -8 6 -2 18 -8 29 -14 14 -8 17 -7 10 4 -6 10
-5 11 8 1 8 -7 18 -10 21 -6 4 3 7 1 7 -5 0 -6 7 -9 17 -5 12 5 14 3 8 -7 -5
-8 -3 -11 6 -8 8 3 33 -6 57 -19 24 -13 41 -18 37 -11 -4 7 0 5 8 -4 8 -10 17
-15 20 -11 4 3 7 1 7 -6 0 -7 4 -9 10 -6 6 3 10 3 10 -2 0 -4 15 -15 33 -23
17 -7 41 -22 52 -32 11 -11 21 -14 23 -8 2 5 9 7 14 4 7 -5 8 -2 3 5 -11 20
-12 71 -1 71 6 0 4 5 -4 10 -13 9 -13 10 0 10 13 0 13 1 0 10 -13 9 -13 10 0
10 13 0 13 1 0 10 -12 8 -12 10 -1 10 10 0 11 3 2 14 -8 9 -8 16 -2 20 5 4 8
16 6 27 -3 12 1 31 7 43 6 11 7 18 3 14 -4 -4 -15 1 -24 11 -9 10 -32 26 -51
36 -19 10 -38 22 -42 28 -6 9 -17 13 -65 19 -7 1 -13 5 -13 10 0 4 -9 8 -20 8
-11 0 -20 4 -20 8 0 4 -14 9 -32 10 -18 2 -35 8 -39 14 -4 6 -11 8 -17 4 -6
-3 -13 -2 -17 4 -4 6 -11 7 -17 4 -6 -4 -13 -2 -17 4 -4 6 -26 12 -49 13 -23
2 -42 7 -42 11 0 4 -3 7 -7 7 -5 -1 -22 -1 -40 0 -24 1 -31 5 -27 16 4 8 13
15 21 15 8 0 12 4 8 9 -3 5 4 12 15 16 11 3 20 10 20 15 0 5 9 12 21 15 11 4
18 9 16 12 -3 2 8 18 24 34 16 16 29 34 29 40 0 6 5 7 10 4 6 -3 10 1 10 9 0
9 5 16 11 16 5 0 8 4 5 9 -3 5 1 12 10 15 8 3 12 10 9 16 -3 5 -1 10 4 10 6 0
11 6 11 13 0 8 9 22 20 32 11 10 17 21 15 26 -3 4 -1 10 5 14 6 4 8 11 5 16
-4 5 -2 9 4 9 5 0 12 14 16 30 4 19 11 28 18 23 7 -4 5 2 -3 12 -9 11 -10 16
-2 11 8 -5 12 0 12 16 0 13 6 30 13 37 6 8 7 11 1 8 -6 -3 -11 0 -11 8 0 8 5
13 11 12 6 -1 9 10 8 27 -2 15 0 26 5 23 6 -4 10 0 10 8 0 8 -3 12 -7 10 -4
-2 -7 2 -7 10 0 8 3 12 7 10 4 -3 8 19 9 47 0 28 3 60 7 70 3 10 2 18 -3 18
-4 0 -8 21 -9 48 -1 58 -8 105 -19 122 -5 8 -4 11 2 7 6 -4 1 19 -9 51 -19 56
-26 79 -27 95 -1 5 -5 6 -10 2 -6 -3 -8 4 -6 15 2 11 0 20 -6 20 -5 0 -9 9 -9
20 0 11 -4 20 -10 20 -5 0 -10 9 -10 21 0 11 -4 17 -10 14 -6 -3 -10 3 -10 15
0 12 -4 18 -10 15 -6 -3 -10 1 -10 9 0 9 -4 16 -10 16 -5 0 -9 3 -9 8 3 19 -2
33 -11 27 -5 -3 -10 -2 -10 4 0 6 -14 25 -32 43 -18 18 -31 35 -29 38 1 3 -5
10 -15 15 -9 6 -30 23 -46 39 -15 16 -28 25 -28 21 0 -4 -8 1 -17 11 -10 11
-30 25 -45 33 -16 8 -28 18 -28 23 0 5 -4 7 -9 3 -5 -3 -16 2 -24 10 -9 8 -23
15 -31 15 -9 0 -16 5 -16 11 0 6 -9 8 -21 4 -15 -5 -19 -4 -15 4 4 6 2 12 -3
12 -12 2 -26 5 -38 9 -5 1 -11 2 -15 1 -5 0 -8 4 -8 10 0 5 -4 7 -10 4 -5 -3
-16 -3 -22 2 -7 4 -21 8 -30 9 -10 1 -19 2 -20 4 -6 4 -44 10 -70 12 -16 0
-28 5 -28 11 0 5 -6 4 -14 -2 -9 -8 -21 -8 -39 -2 -18 7 -28 7 -33 0 -4 -8 -9
-7 -14 1 -5 8 -13 9 -26 3 -11 -6 -36 -9 -56 -7 -21 1 -38 -2 -38 -7 0 -5 -5
-9 -11 -9 -5 0 -7 5 -3 12 5 7 3 8 -7 2 -14 -9 -29 -13 -61 -16 -10 -1 -18 -6
-18 -11 0 -5 -6 -5 -13 1 -8 7 -17 7 -29 -2 -10 -7 -16 -15 -14 -17 3 -2 -7
-5 -21 -6 -14 0 -28 -5 -32 -10 -3 -5 -16 -8 -28 -7 -12 1 -20 -2 -18 -7 3 -4
-11 -13 -30 -19 -19 -6 -35 -16 -35 -21 0 -6 -4 -8 -9 -5 -5 3 -12 -1 -15 -10
-3 -8 -10 -13 -15 -9 -6 3 -14 -3 -20 -12 -6 -10 -11 -14 -11 -9 0 5 -9 -1
-20 -14 -11 -13 -20 -20 -20 -17 0 3 -12 -6 -27 -21 -15 -15 -27 -30 -25 -34
1 -4 -5 -5 -13 -2 -9 4 -15 0 -15 -10 0 -9 -4 -16 -10 -16 -5 0 -10 -8 -10
-17 0 -9 -3 -13 -7 -10 -3 4 -17 -9 -30 -28 -13 -19 -28 -35 -34 -35 -6 0 -7
-5 -4 -10 3 -6 -1 -13 -9 -16 -9 -3 -14 -10 -11 -14 3 -5 -1 -15 -9 -23 -8 -8
-12 -17 -9 -21 4 -3 2 -6 -3 -6 -6 0 -16 -16 -23 -35 -7 -19 -17 -35 -23 -35
-6 0 -9 -3 -5 -6 3 -4 0 -21 -8 -39 -7 -19 -11 -36 -7 -39 3 -3 0 -6 -7 -6 -8
0 -11 -8 -8 -20 3 -11 1 -22 -4 -25 -4 -3 -5 -13 -2 -21 3 -9 0 -20 -7 -24 -7
-4 -12 -20 -12 -34 0 -39 -11 -23 -14 21 -1 21 -5 49 -9 63 -3 14 -7 30 -8 35
-2 6 -6 15 -10 22 -4 6 -8 23 -9 37 -1 14 -6 26 -10 26 -4 0 -8 12 -8 26 0 14
-4 23 -10 19 -6 -3 -10 3 -10 14 0 20 -34 79 -65 114 -9 10 -13 23 -9 29 4 7
3 8 -4 4 -7 -4 -12 -1 -12 9 0 9 -4 13 -10 10 -5 -3 -10 1 -10 10 0 8 -7 18
-15 21 -8 4 -15 13 -15 21 0 8 -4 11 -10 8 -6 -3 -10 -1 -10 5 0 6 -7 18 -15
26 -8 9 -15 12 -15 8 0 -4 -10 5 -23 19 -12 15 -28 27 -34 27 -7 0 -17 8 -22
18 -6 9 -11 13 -11 9 0 -4 -6 -2 -14 5 -8 7 -11 18 -8 23 3 6 2 7 -3 3 -8 -7
-55 14 -87 40 -9 7 -22 15 -30 16 -7 1 -24 8 -38 16 -14 8 -33 13 -44 11 -10
-1 -15 2 -12 7 4 6 -4 9 -19 7 -17 -1 -25 3 -25 14 0 13 -2 14 -9 2 -7 -11
-13 -12 -23 -4 -7 6 -16 12 -20 12 -5 1 -9 1 -10 2 -2 1 -14 2 -28 3 -14 0
-31 5 -39 10 -11 7 -12 6 -6 -5 7 -11 6 -12 -6 -3 -8 6 -25 14 -39 16 -14 3
-34 9 -45 13 -16 5 -17 5 -5 -4 8 -6 10 -11 5 -11 -6 0 -15 4 -20 9 -6 6 -31
11 -57 13 -27 2 -48 7 -48 12 0 5 -8 2 -17 -5 -11 -10 -14 -10 -9 -1 5 9 -2
12 -28 12 -19 0 -38 5 -41 10 -4 7 -13 7 -26 0 -14 -8 -19 -7 -19 1 0 8 -4 8
-15 -1 -8 -7 -15 -8 -15 -3 0 5 -15 10 -32 11 -34 3 -73 9 -73 12 0 1 -22 3
-50 5 -27 2 -54 4 -60 4 -5 1 -3 6 5 11 9 6 10 10 3 10 -6 0 -14 -4 -18 -10
-4 -6 -15 -6 -31 0 -14 6 -30 8 -34 5 -5 -3 -13 3 -19 12 -6 11 -11 13 -11 5
0 -9 -5 -10 -17 -4 -10 5 -24 7 -30 5 -7 -3 -13 1 -13 7 0 7 -7 10 -15 7 -8
-4 -17 -2 -20 4 -4 5 -11 7 -16 4 -5 -4 -9 -2 -9 3 0 6 -9 8 -20 5 -12 -3 -20
0 -20 8 0 7 -3 9 -7 6 -3 -4 -15 1 -26 10 -11 10 -17 12 -13 6 10 -18 -2 -16
-21 3 -9 8 -25 13 -35 10 -11 -2 -17 -2 -14 1 5 6 -34 30 -109 67 -16 8 -25
15 -20 16 13 0 -17 20 -31 20 -6 0 -11 -15 -11 -33z m1052 -557 c-3 -5 -1 -10
4 -10 6 0 11 4 11 10 0 6 9 6 23 2 12 -5 33 -8 47 -8 14 1 27 -2 30 -6 3 -4
20 -8 38 -10 18 -1 32 -6 32 -11 0 -5 7 -7 15 -3 8 3 15 1 15 -5 0 -6 5 -7 10
-4 6 3 10 1 10 -4 0 -6 9 -11 20 -11 11 0 20 -4 20 -10 0 -5 6 -10 13 -10 7 0
23 -9 35 -20 12 -12 22 -17 22 -13 0 4 12 -5 26 -20 14 -15 30 -25 35 -21 5 3
9 2 8 -3 -3 -20 2 -34 11 -28 6 3 10 2 10 -3 0 -5 16 -27 35 -48 19 -21 35
-44 35 -51 0 -7 5 -13 12 -13 6 0 8 -3 5 -6 -3 -4 -1 -16 5 -28 7 -11 11 -24
10 -28 -1 -5 2 -8 8 -8 5 0 10 -11 10 -24 0 -13 5 -26 11 -28 5 -2 11 -19 11
-38 0 -19 5 -41 11 -47 6 -9 6 -13 -2 -13 -8 0 -8 -6 1 -20 10 -15 10 -22 0
-32 -6 -6 -12 -17 -12 -22 0 -6 4 -4 10 4 6 10 9 5 8 -18 -1 -18 -6 -32 -12
-32 -6 0 -4 -5 4 -10 10 -6 11 -10 3 -10 -7 0 -13 -5 -13 -11 0 -5 6 -7 13 -3
8 5 7 2 -2 -9 -8 -10 -11 -20 -7 -24 3 -3 -2 -15 -11 -26 -13 -15 -14 -18 -3
-12 13 8 13 7 1 -8 -7 -9 -10 -17 -6 -17 4 0 0 -12 -10 -26 -9 -15 -12 -23 -6
-20 7 5 9 1 5 -8 -3 -9 -10 -16 -15 -16 -5 0 -9 -6 -9 -14 0 -8 -6 -21 -13
-28 -7 -7 -15 -17 -17 -23 -7 -23 -47 -74 -53 -68 -4 3 -7 1 -7 -6 0 -21 -80
-88 -142 -120 -15 -8 -25 -18 -22 -22 3 -5 -1 -6 -9 -3 -8 3 -18 0 -22 -5 -3
-6 -11 -9 -16 -6 -5 4 -9 2 -9 -3 0 -6 -7 -13 -16 -16 -10 -4 -13 -2 -8 7 6 9
5 9 -8 0 -8 -7 -27 -14 -42 -15 -14 -1 -26 -6 -26 -10 0 -8 -210 -9 -225 0 -5
3 -22 7 -39 9 -16 2 -35 8 -43 14 -7 6 -13 8 -13 4 0 -5 -10 0 -22 11 -13 12
-18 13 -13 4 7 -12 6 -13 -7 -3 -8 7 -18 11 -21 8 -4 -3 -5 -2 -2 2 3 4 -10
14 -28 22 -36 17 -47 26 -113 87 -24 23 -44 47 -44 55 0 11 -2 11 -10 -1 -9
-15 -11 -10 -10 25 0 3 -10 16 -22 28 -13 12 -25 31 -26 42 -2 11 -8 22 -13
23 -5 2 -9 12 -9 23 0 10 -4 19 -10 19 -5 0 -9 3 -9 8 4 23 -2 52 -10 48 -5
-3 -9 0 -8 7 2 58 -4 97 -15 91 -7 -5 -8 -3 -2 7 5 8 10 25 11 39 3 20 1 22
-7 10 -5 -8 -10 -10 -10 -4 0 6 3 14 7 18 13 13 14 48 1 41 -7 -4 -6 -1 2 7
10 8 15 26 13 46 -1 17 2 32 7 32 6 0 10 10 10 23 0 13 6 29 13 36 10 11 9 12
-3 6 -13 -8 -13 -7 0 11 8 10 20 22 25 26 6 5 5 8 -3 8 -8 0 -5 8 8 22 11 12
18 28 16 34 -3 7 2 15 10 18 9 3 12 11 8 17 -4 8 -3 9 4 5 6 -4 16 4 23 16 16
30 35 48 43 41 6 -6 10 12 7 30 0 4 5 7 12 7 7 0 24 11 39 25 15 14 32 25 38
25 5 0 10 5 10 10 0 6 8 10 17 10 9 0 24 7 33 15 10 9 30 18 46 21 16 3 32 10
35 16 4 6 12 7 18 4 6 -4 11 -2 11 3 0 6 10 11 23 11 51 0 118 7 124 13 10 10
15 8 8 -3z m1689 -32 c12 12 156 10 156 -2 0 -6 4 -5 9 3 6 9 11 10 15 2 4 -6
20 -11 37 -11 16 0 29 -4 29 -8 0 -5 7 -9 15 -10 8 -1 22 -3 30 -4 8 -1 15 -5
15 -10 0 -4 7 -8 15 -8 8 0 15 -4 15 -10 0 -5 7 -7 15 -4 8 4 15 1 15 -5 0 -6
6 -11 13 -11 7 0 30 -16 51 -35 21 -19 42 -35 47 -35 4 0 10 -9 14 -20 3 -11
9 -19 13 -17 4 1 8 -1 9 -6 2 -4 13 -18 25 -32 39 -42 47 -53 41 -59 -4 -3 -1
-6 6 -6 7 0 11 -6 9 -12 -3 -7 4 -21 14 -32 16 -18 22 -38 21 -73 -1 -7 3 -10
8 -7 8 4 13 -31 12 -73 -1 -7 3 -13 7 -13 10 0 7 -142 -4 -159 -7 -11 -6 -12
5 -6 12 8 12 6 0 -8 -11 -14 -11 -17 0 -18 10 0 11 -2 2 -6 -7 -2 -13 -16 -13
-29 0 -13 -4 -24 -9 -24 -5 0 -8 -7 -7 -17 2 -9 -7 -35 -20 -59 -12 -23 -20
-45 -17 -48 4 -3 1 -6 -5 -6 -7 0 -12 -6 -12 -14 0 -8 -7 -17 -16 -20 -8 -3
-12 -10 -9 -16 3 -5 1 -10 -4 -10 -6 0 -11 -8 -11 -17 0 -15 -2 -16 -10 -3 -9
14 -12 8 -9 -16 0 -5 -13 -17 -67 -59 -14 -11 -34 -29 -45 -39 -10 -11 -19
-16 -19 -12 0 4 -7 0 -16 -8 -8 -9 -20 -14 -25 -11 -5 4 -9 1 -9 -5 0 -6 -4
-8 -10 -5 -5 3 -10 3 -10 -2 0 -4 -11 -13 -25 -20 -16 -7 -23 -7 -18 -1 4 7 1
8 -8 2 -28 -18 -79 -32 -72 -20 3 6 0 6 -8 -1 -7 -7 -36 -13 -64 -13 -28 0
-57 -6 -64 -12 -11 -10 -13 -10 -7 0 5 9 -6 12 -44 12 -38 0 -49 3 -44 13 5 7
0 6 -11 -3 -13 -10 -16 -11 -11 -2 6 10 3 13 -10 12 -37 -4 -55 0 -48 11 4 8
0 9 -15 4 -13 -4 -21 -2 -21 5 0 6 -4 8 -10 5 -5 -3 -10 -1 -10 5 0 6 -5 8
-10 5 -6 -3 -13 0 -16 9 -3 8 -14 13 -26 11 -11 -3 -18 -2 -14 2 5 5 -35 41
-41 36 -5 -5 -78 70 -76 78 2 5 -1 8 -5 6 -12 -3 -56 51 -72 90 -8 17 -19 29
-25 26 -5 -4 -7 -3 -3 2 4 4 2 15 -5 23 -10 13 -9 15 3 8 11 -6 11 -4 -1 6 -9
7 -15 21 -13 31 1 9 -2 15 -7 11 -5 -3 -9 8 -9 23 0 16 -4 33 -10 39 -16 16
-14 232 2 251 11 14 11 16 -2 8 -12 -6 -13 -5 -2 6 6 7 12 23 12 36 0 13 5 23
11 23 6 0 9 7 6 15 -4 8 -2 17 3 20 6 4 10 15 10 25 0 10 5 22 12 26 7 5 8 2
3 -7 -5 -8 -4 -11 1 -6 5 5 9 12 10 15 3 25 17 61 23 58 8 -5 31 20 25 27 -3
3 7 14 22 26 15 11 24 21 20 21 -4 0 -1 6 6 14 7 8 18 13 23 13 6 -1 9 4 8 11
-2 6 4 12 12 12 8 0 15 5 15 10 0 5 4 9 9 8 5 -2 17 6 26 17 9 11 14 13 10 5
-4 -10 -2 -9 8 2 8 10 17 15 20 12 3 -4 13 1 22 10 9 9 21 14 26 11 5 -4 9 -1
9 5 0 6 4 9 9 6 5 -3 14 0 20 7 6 8 28 14 48 15 21 1 39 6 41 12 3 8 8 8 16 1
7 -6 16 -7 20 -3z"/>
<path d="M1583 2669 c-18 -3 -33 -4 -33 -1 0 3 -9 -5 -20 -18 -11 -13 -20 -19
-20 -14 0 5 -5 2 -10 -6 -14 -22 -12 -50 3 -50 16 0 63 -47 55 -55 -3 -3 -15
-7 -26 -10 -38 -7 -62 -26 -62 -48 0 -22 63 -97 73 -87 2 3 12 -2 22 -10 17
-13 18 -13 10 0 -7 12 -6 13 6 3 16 -13 79 -13 79 0 0 4 11 7 25 7 17 0 29 7
35 23 5 12 9 18 9 12 1 -5 9 6 20 25 10 19 17 38 14 43 -2 4 1 7 7 7 11 0 5
52 -10 80 -5 10 -6 21 -2 25 4 5 1 5 -5 1 -8 -4 -13 -1 -13 7 0 8 -7 18 -16
21 -8 3 -13 10 -10 15 11 16 -89 40 -131 30z"/>
<path d="M3318 2656 c-15 -8 -29 -12 -31 -9 -3 2 -8 -1 -13 -8 -5 -8 -3 -10 7
-5 8 4 6 1 -3 -7 -10 -8 -18 -18 -18 -23 0 -10 49 -54 60 -54 5 0 10 -7 13
-14 4 -10 1 -13 -9 -9 -7 3 -14 0 -14 -6 0 -6 -6 -11 -13 -11 -18 0 -67 -23
-67 -32 0 -4 4 -9 10 -13 5 -3 6 -13 3 -22 -4 -11 -3 -14 5 -9 7 4 12 1 12 -9
0 -8 8 -19 18 -22 9 -4 20 -11 24 -17 11 -16 113 -30 133 -18 6 4 15 7 21 8
18 3 54 37 54 51 0 7 5 13 10 13 6 0 10 9 10 19 0 11 5 23 10 26 6 3 10 11 10
16 0 6 -4 8 -8 5 -4 -2 -8 4 -8 14 0 10 4 16 8 14 4 -3 8 0 8 5 0 6 -4 11 -10
11 -5 0 -10 9 -10 19 0 24 -47 81 -66 81 -8 0 -14 4 -14 8 0 15 -104 13 -132
-2z"/>
<path d="M2480 2099 c0 -5 -4 -7 -10 -4 -5 3 -10 -1 -10 -9 0 -9 -5 -16 -12
-16 -6 0 -8 -3 -5 -7 4 -3 -2 -12 -13 -20 -11 -8 -20 -19 -20 -24 0 -6 -6 -16
-12 -23 -7 -7 -22 -25 -33 -41 -11 -15 -31 -41 -45 -58 -14 -17 -20 -28 -14
-24 10 6 18 -13 25 -61 0 -4 4 -11 9 -17 4 -5 6 -18 5 -27 -2 -10 1 -18 5 -18
5 0 7 -9 5 -20 -2 -13 2 -20 11 -20 8 0 12 -5 9 -10 -4 -6 -1 -18 7 -27 11
-14 11 -15 0 -9 -11 6 -11 4 -3 -13 6 -12 16 -30 21 -41 6 -11 10 -31 10 -45
0 -18 4 -24 12 -19 7 5 9 2 5 -9 -3 -9 0 -29 8 -45 8 -15 17 -39 19 -53 2 -13
5 -26 6 -29 2 -3 2 -8 1 -12 -2 -14 11 -8 25 10 7 9 14 27 14 40 0 12 5 22 12
22 6 0 9 3 5 6 -3 4 1 20 9 36 8 16 12 32 10 37 -3 5 1 14 9 21 8 7 13 16 10
20 -3 5 -1 11 5 15 5 3 10 15 10 26 0 10 5 19 10 19 6 0 10 11 10 25 0 14 5
25 11 25 5 0 8 4 5 8 -3 5 2 21 10 37 8 15 15 39 16 52 1 12 6 23 11 23 5 0 6
7 3 16 -3 8 -2 12 4 9 6 -3 10 5 10 19 0 14 -3 26 -8 26 -4 0 -16 16 -26 35
-11 19 -23 35 -28 35 -4 0 -8 7 -8 15 0 8 -4 15 -10 15 -5 0 -10 6 -10 14 0 8
-4 16 -9 18 -4 2 -20 22 -35 46 -25 40 -46 54 -46 31z"/>
</g>
</svg>
